# xmcd
#
# Track frame offsets: 
#        150
#        13332
#        28998
#        42636
#        62121
#        77141
#        96173
#        114286
#        132903
#        155183
#        168957
#        188704
#        209164
#
# Disc length: 3119 seconds
#
# Revision: 1
# Processed by: cddbd v1.5.1PL0 Copyright (c) Steve Scherf et al.
# Submitted via: ExactAudioCopy v0.95a5
#
DISCID=be0c2d0d
DTITLE=Maroon 5 - Songs About Jane
DYEAR=2003
DGENRE=Rock
TTITLE0=Harder To Breathe
TTITLE1=This Love
TTITLE2=Shiver
TTITLE3=She Will Be Loved
TTITLE4=Tangled
TTITLE5=The Sun
TTITLE6=Must Get Out
TTITLE7=Sunday Morning
TTITLE8=Secret
TTITLE9=Through With You
TTITLE10=Not Coming Home
TTITLE11=Sweetest Goodbye
TTITLE12=Ragdoll
EXTD=YEAR: 2003
EXTT0=
EXTT1=
EXTT2=
EXTT3=
EXTT4=
EXTT5=
EXTT6=
EXTT7=
EXTT8=
EXTT9=
EXTT10=
EXTT11=
EXTT12=
PLAYORDER=
